# xmcd
#
# Track frame offsets:
#	182
#	13257
#	27755
#	42342
#	45057
#	63195
#	82310
#	94352
#	99727
#	114427
#	132970
#	149342
#	152292
#	162655
#	179665
#	195022
#	209122
#	226855
#
# Disc length: 3219 seconds
#
# Revision: 7
# Processed by: cddbd v1.5.2PL0 Copyright (c) Steve Scherf et al.
# Submitted via: audiograbber 1.83.01
#
DISCID=f20c9112
DTITLE=Trina - Da Baddest Bitch
DYEAR=2000
DGENRE=Rap
TTITLE0=The Big Lick w/ The Lost Tribe
TTITLE1=Da Baddest Bitch
TTITLE2=If U w/ Me w/ Mystic of the Lost Tribe
TTITLE3=Hair Dresser Skit
TTITLE4=Ain't Shit w/ Lois Lane
TTITLE5=Off The Chain With It w/ Trick Daddy
TTITLE6=69 Ways w/ J-Shin
TTITLE7=Club Skit
TTITLE8=Ball Wit Me w/ 24 Karatz
TTITLE9=Watch Yo Back w/ Twista
TTITLE10=Off Glass w/ Duece Poppito of 24 Karatz
TTITLE11=Answering Machine Skit
TTITLE12=I Don't Need U w/ Trick Daddy
TTITLE13=I Need w/ Tre+6
TTITLE14=I'll Always
TTITLE15=Mama w/ J.A.B.A.N. and J-Shin
TTITLE16=Take Me w/ Pamela Long of Total
TTITLE17=Pull Over
EXTD=YEAR: 2000 ID3G: 15
EXTT0=
EXTT1=
EXTT2=
EXTT3=
EXTT4=
EXTT5=
EXTT6=
EXTT7=
EXTT8=
EXTT9=
EXTT10=
EXTT11=
EXTT12=
EXTT13=
EXTT14=
EXTT15=
EXTT16=
EXTT17=
PLAYORDER=
